<?xml version="1.0" encoding="UTF-8" standalone="no"?>
<svg
   version="1.1"
   width="24"
   height="24"
   viewBox="0 0 24 24"
   id="svg4"
   sodipodi:docname="red.svg"
   inkscape:version="1.1 (c68e22c387, 2021-05-23)"
   xmlns:inkscape="http://www.inkscape.org/namespaces/inkscape"
   xmlns:sodipodi="http://sodipodi.sourceforge.net/DTD/sodipodi-0.dtd"
   xmlns="http://www.w3.org/2000/svg"
   xmlns:svg="http://www.w3.org/2000/svg">
  <defs
     id="defs8" />
  <sodipodi:namedview
     id="namedview6"
     pagecolor="#ffffff"
     bordercolor="#666666"
     borderopacity="1.0"
     inkscape:pageshadow="2"
     inkscape:pageopacity="0.0"
     inkscape:pagecheckerboard="0"
     showgrid="false"
     inkscape:zoom="35.916667"
     inkscape:cx="11.986079"
     inkscape:cy="11.958237"
     inkscape:window-width="1920"
     inkscape:window-height="1051"
     inkscape:window-x="-9"
     inkscape:window-y="-9"
     inkscape:window-maximized="1"
     inkscape:current-layer="svg4" />
  <path
     d="M12,2A10,10 0 0,0 2,12A10,10 0 0,0 12,22A10,10 0 0,0 22,12A10,10 0 0,0 12,2Z"
     id="path2" />
  <path
     style="fill:#ff0000;stroke-width:0.0278422"
     d="M 11.568445,21.97881 C 11.103989,21.948075 10.675547,21.900889 10.327669,21.842159 7.9381676,21.438761 5.7466073,20.150081 4.2207671,18.251185 1.8836987,15.342723 1.3617461,11.384735 2.865535,7.9744071 4.0969712,5.181727 6.5668438,3.0872758 9.5220418,2.3296917 10.390397,2.1070833 11.059096,2.0248076 12,2.0248076 c 0.940904,0 1.609603,0.082276 2.477958,0.3048841 2.080608,0.5333772 3.955466,1.7415224 5.295063,3.4121003 1.498005,1.8681241 2.256334,4.0978817 2.199402,6.467025 -0.02712,1.128415 -0.163204,1.92209 -0.506686,2.955044 -1.236315,3.717975 -4.582906,6.387533 -8.491259,6.773433 -0.31702,0.0313 -1.176775,0.05669 -1.406033,0.04152 z"
     id="path84" />
</svg>
